<?xml version="1.0" encoding="UTF-8" standalone="no"?>
<!DOCTYPE svg PUBLIC "-//W3C//DTD SVG 1.1//EN" "http://www.w3.org/Graphics/SVG/1.1/DTD/svg11.dtd">
<svg version="1.1" xmlns="http://www.w3.org/2000/svg" xmlns:xlink="http://www.w3.org/1999/xlink" preserveAspectRatio="xMidYMid meet" viewBox="0 0 640 640" width="640" height="640"><defs><path d="M211.07 124.94L278.93 124.94L278.93 199.94L211.07 199.94L211.07 124.94Z" id="a8srSBLg7x"></path><path d="M211.07 205.94L278.93 205.94L278.93 280.94L211.07 280.94L211.07 205.94Z" id="bsWJBBEc"></path><path d="M211.07 286.94L278.93 286.94L278.93 361.94L211.07 361.94L211.07 286.94Z" id="anAZVHJ6G"></path><path d="M284.76 124.94L352.62 124.94L352.62 199.94L284.76 199.94L284.76 124.94Z" id="aaDa1S0ro"></path><path d="M358.66 124.94L426.52 124.94L426.52 199.94L358.66 199.94L358.66 124.94Z" id="bYFvhVX8y"></path><path d="M432.07 124.94L499.93 124.94L499.93 199.94L432.07 199.94L432.07 124.94Z" id="b2513KVcIr"></path><path d="M284.76 205.94L352.62 205.94L352.62 280.94L284.76 280.94L284.76 205.94Z" id="b3xQDLJtCo"></path><path d="M358.66 205.94L426.52 205.94L426.52 280.94L358.66 280.94L358.66 205.94Z" id="c2lX6B1h3Y"></path><path d="M432.07 205.94L499.93 205.94L499.93 280.94L432.07 280.94L432.07 205.94Z" id="cixTpbiWG"></path><path d="M284.76 286.94L352.62 286.94L352.62 361.94L284.76 361.94L284.76 286.94Z" id="e398A9oN5u"></path><path d="M358.66 286.94L426.52 286.94L426.52 361.94L358.66 361.94L358.66 286.94Z" id="fnYkZr9DU"></path><path d="M432.07 286.94L499.93 286.94L499.93 361.94L432.07 361.94L432.07 286.94Z" id="cOCVuRQyR"></path><path d="M211.07 366.94L278.93 366.94L278.93 441.94L211.07 441.94L211.07 366.94Z" id="a2a3uShVhd"></path><path d="M284.76 366.94L352.62 366.94L352.62 441.94L284.76 441.94L284.76 366.94Z" id="caAWySB7i"></path><path d="M358.66 366.94L426.52 366.94L426.52 441.94L358.66 441.94L358.66 366.94Z" id="h224imCt8"></path><path d="M432.07 366.94L499.93 366.94L499.93 441.94L432.07 441.94L432.07 366.94Z" id="b5711LNHO"></path><path d="M506.07 124.94L573.93 124.94L573.93 199.94L506.07 199.94L506.07 124.94Z" id="erKotcODw"></path><path d="M506.07 205.94L573.93 205.94L573.93 280.94L506.07 280.94L506.07 205.94Z" id="a7KyinG66"></path><path d="M506.07 286.94L573.93 286.94L573.93 361.94L506.07 361.94L506.07 286.94Z" id="g11DYXWrhu"></path><path d="M506.07 366.94L573.93 366.94L573.93 441.94L506.07 441.94L506.07 366.94Z" id="abI80h6lQ"></path><path d="M211.07 446.94L278.93 446.94L278.93 521.94L211.07 521.94L211.07 446.94Z" id="a2XQtHtGNk"></path><path d="M284.76 446.94L352.62 446.94L352.62 521.94L284.76 521.94L284.76 446.94Z" id="c5mUSyageh"></path><path d="M358.66 446.94L426.52 446.94L426.52 521.94L358.66 521.94L358.66 446.94Z" id="b105o1U3AA"></path><path d="M432.07 446.94L499.93 446.94L499.93 521.94L432.07 521.94L432.07 446.94Z" id="b1hYcYfol7"></path><path d="M506.07 446.94L573.93 446.94L573.93 521.94L506.07 521.94L506.07 446.94Z" id="bYPbXAkaW"></path></defs><g><g><g><use xlink:href="#a8srSBLg7x" opacity="1" fill="#f8d901" fill-opacity="1"></use></g><g><use xlink:href="#bsWJBBEc" opacity="1" fill="#f8d901" fill-opacity="1"></use></g><g><use xlink:href="#anAZVHJ6G" opacity="1" fill="#f8d901" fill-opacity="1"></use></g><g><use xlink:href="#aaDa1S0ro" opacity="1" fill="#f8d901" fill-opacity="1"></use></g><g><use xlink:href="#bYFvhVX8y" opacity="1" fill="#f8d901" fill-opacity="1"></use></g><g><use xlink:href="#b2513KVcIr" opacity="1" fill="#f8d901" fill-opacity="1"></use></g><g><use xlink:href="#b3xQDLJtCo" opacity="1" fill="#1e7f9b" fill-opacity="1"></use></g><g><use xlink:href="#c2lX6B1h3Y" opacity="1" fill="#1e7f9b" fill-opacity="1"></use></g><g><use xlink:href="#cixTpbiWG" opacity="1" fill="#1e7f9b" fill-opacity="1"></use></g><g><use xlink:href="#e398A9oN5u" opacity="1" fill="#1e7f9b" fill-opacity="1"></use></g><g><use xlink:href="#fnYkZr9DU" opacity="1" fill="#f8d901" fill-opacity="1"></use></g><g><use xlink:href="#cOCVuRQyR" opacity="1" fill="#f8d901" fill-opacity="1"></use></g><g><use xlink:href="#a2a3uShVhd" opacity="1" fill="#f8d901" fill-opacity="1"></use></g><g><use xlink:href="#caAWySB7i" opacity="1" fill="#1e7f9b" fill-opacity="1"></use></g><g><use xlink:href="#h224imCt8" opacity="1" fill="#1e7f9b" fill-opacity="1"></use></g><g><use xlink:href="#b5711LNHO" opacity="1" fill="#1e7f9b" fill-opacity="1"></use></g><g><use xlink:href="#erKotcODw" opacity="1" fill="#f8d901" fill-opacity="1"></use></g><g><use xlink:href="#a7KyinG66" opacity="1" fill="#1e7f9b" fill-opacity="1"></use></g><g><use xlink:href="#g11DYXWrhu" opacity="1" fill="#f8d901" fill-opacity="1"></use></g><g><use xlink:href="#abI80h6lQ" opacity="1" fill="#f8d901" fill-opacity="1"></use></g><g><use xlink:href="#a2XQtHtGNk" opacity="1" fill="#f8d901" fill-opacity="1"></use></g><g><use xlink:href="#c5mUSyageh" opacity="1" fill="#f8d901" fill-opacity="1"></use></g><g><use xlink:href="#b105o1U3AA" opacity="1" fill="#f8d901" fill-opacity="1"></use></g><g><use xlink:href="#b1hYcYfol7" opacity="1" fill="#f8d901" fill-opacity="1"></use></g><g><use xlink:href="#bYPbXAkaW" opacity="1" fill="#f8d901" fill-opacity="1"></use></g></g></g></svg>