<?xml version="1.0" encoding="UTF-8" standalone="no"?>
<!DOCTYPE svg PUBLIC "-//W3C//DTD SVG 1.1//EN" "http://www.w3.org/Graphics/SVG/1.1/DTD/svg11.dtd">
<svg version="1.1" xmlns="http://www.w3.org/2000/svg" xmlns:xlink="http://www.w3.org/1999/xlink" preserveAspectRatio="xMidYMid meet" viewBox="0 0 640 640" width="640" height="640"><defs><path d="M211.07 124.94L278.93 124.94L278.93 199.94L211.07 199.94L211.07 124.94Z" id="a8srSBLg7x"></path><path d="M211.07 205.94L278.93 205.94L278.93 280.94L211.07 280.94L211.07 205.94Z" id="a55D8YCCS"></path><path d="M211.07 286.94L278.93 286.94L278.93 361.94L211.07 361.94L211.07 286.94Z" id="aygd2Wmsd"></path><path d="M284.76 124.94L352.62 124.94L352.62 199.94L284.76 199.94L284.76 124.94Z" id="aaDa1S0ro"></path><path d="M358.66 124.94L426.52 124.94L426.52 199.94L358.66 199.94L358.66 124.94Z" id="bYFvhVX8y"></path><path d="M432.07 124.94L499.93 124.94L499.93 199.94L432.07 199.94L432.07 124.94Z" id="b2513KVcIr"></path><path d="M284.76 205.94L352.62 205.94L352.62 280.94L284.76 280.94L284.76 205.94Z" id="a2nBSDocQJ"></path><path d="M358.66 205.94L426.52 205.94L426.52 280.94L358.66 280.94L358.66 205.94Z" id="b190LygzVC"></path><path d="M432.07 205.94L499.93 205.94L499.93 280.94L432.07 280.94L432.07 205.94Z" id="a9uXl5GwD"></path><path d="M284.76 286.94L352.62 286.94L352.62 361.94L284.76 361.94L284.76 286.94Z" id="fjCBa85qz"></path><path d="M358.66 286.94L426.52 286.94L426.52 361.94L358.66 361.94L358.66 286.94Z" id="fnYkZr9DU"></path><path d="M506.07 446.94L573.93 446.94L573.93 521.94L506.07 521.94L506.07 446.94Z" id="b9TZltrV2"></path><path d="M211.07 366.94L278.93 366.94L278.93 441.94L211.07 441.94L211.07 366.94Z" id="aQ1kvxBaM"></path><path d="M284.76 366.94L352.62 366.94L352.62 441.94L284.76 441.94L284.76 366.94Z" id="a16xhg8tg5"></path><path d="M432.07 446.94L499.93 446.94L499.93 521.94L432.07 521.94L432.07 446.94Z" id="c4Hvb6RMo"></path><path d="M506.07 205.94L573.93 205.94L573.93 280.94L506.07 280.94L506.07 205.94Z" id="aaqqntLZ60"></path><path d="M506.07 286.94L573.93 286.94L573.93 361.94L506.07 361.94L506.07 286.94Z" id="b2XBbe5j2F"></path><path d="M506.07 366.94L573.93 366.94L573.93 441.94L506.07 441.94L506.07 366.94Z" id="aQ8hdqaN5"></path><path d="M432.07 286.94L499.93 286.94L499.93 361.94L432.07 361.94L432.07 286.94Z" id="q5kH6SZgTz"></path><path d="M432.07 366.94L499.93 366.94L499.93 441.94L432.07 441.94L432.07 366.94Z" id="c2n32bq7QZ"></path><path d="M358.66 366.94L426.52 366.94L426.52 441.94L358.66 441.94L358.66 366.94Z" id="a1kQyYjH6J"></path><path d="M506.07 124.94L573.93 124.94L573.93 199.94L506.07 199.94L506.07 124.94Z" id="a2483d2Xo9"></path><path d="M211.07 446.94L278.93 446.94L278.93 521.94L211.07 521.94L211.07 446.94Z" id="a30llkQxpk"></path><path d="M284.76 446.94L352.62 446.94L352.62 521.94L284.76 521.94L284.76 446.94Z" id="aSiN0r9vW"></path><path d="M358.66 446.94L426.52 446.94L426.52 521.94L358.66 521.94L358.66 446.94Z" id="b105o1U3AA"></path></defs><g><g><g><use xlink:href="#a8srSBLg7x" opacity="1" fill="#f8d901" fill-opacity="1"></use></g><g><use xlink:href="#a55D8YCCS" opacity="1" fill="#1e7f9b" fill-opacity="1"></use></g><g><use xlink:href="#aygd2Wmsd" opacity="1" fill="#1e7f9b" fill-opacity="1"></use></g><g><use xlink:href="#aaDa1S0ro" opacity="1" fill="#f8d901" fill-opacity="1"></use></g><g><use xlink:href="#bYFvhVX8y" opacity="1" fill="#f8d901" fill-opacity="1"></use></g><g><use xlink:href="#b2513KVcIr" opacity="1" fill="#f8d901" fill-opacity="1"></use></g><g><use xlink:href="#a2nBSDocQJ" opacity="1" fill="#1e7f9b" fill-opacity="1"></use></g><g><use xlink:href="#b190LygzVC" opacity="1" fill="#f8d901" fill-opacity="1"></use></g><g><use xlink:href="#a9uXl5GwD" opacity="1" fill="#1e7f9b" fill-opacity="1"></use></g><g><use xlink:href="#fjCBa85qz" opacity="1" fill="#1e7f9b" fill-opacity="1"></use></g><g><use xlink:href="#fnYkZr9DU" opacity="1" fill="#f8d901" fill-opacity="1"></use></g><g><use xlink:href="#b9TZltrV2" opacity="1" fill="#1e7f9b" fill-opacity="1"></use></g><g><use xlink:href="#aQ1kvxBaM" opacity="1" fill="#1e7f9b" fill-opacity="1"></use></g><g><use xlink:href="#a16xhg8tg5" opacity="1" fill="#1e7f9b" fill-opacity="1"></use></g><g><use xlink:href="#c4Hvb6RMo" opacity="1" fill="#1e7f9b" fill-opacity="1"></use></g><g><use xlink:href="#aaqqntLZ60" opacity="1" fill="#1e7f9b" fill-opacity="1"></use></g><g><use xlink:href="#b2XBbe5j2F" opacity="1" fill="#1e7f9b" fill-opacity="1"></use></g><g><use xlink:href="#aQ8hdqaN5" opacity="1" fill="#1e7f9b" fill-opacity="1"></use></g><g><use xlink:href="#q5kH6SZgTz" opacity="1" fill="#1e7f9b" fill-opacity="1"></use></g><g><use xlink:href="#c2n32bq7QZ" opacity="1" fill="#1e7f9b" fill-opacity="1"></use></g><g><use xlink:href="#a1kQyYjH6J" opacity="1" fill="#f8d901" fill-opacity="1"></use></g><g><use xlink:href="#a2483d2Xo9" opacity="1" fill="#f8d901" fill-opacity="1"></use></g><g><use xlink:href="#a30llkQxpk" opacity="1" fill="#1e7f9b" fill-opacity="1"></use></g><g><use xlink:href="#aSiN0r9vW" opacity="1" fill="#1e7f9b" fill-opacity="1"></use></g><g><use xlink:href="#b105o1U3AA" opacity="1" fill="#f8d901" fill-opacity="1"></use></g></g></g></svg>