<?xml version="1.0" encoding="UTF-8" standalone="no"?>
<!DOCTYPE svg PUBLIC "-//W3C//DTD SVG 1.1//EN" "http://www.w3.org/Graphics/SVG/1.1/DTD/svg11.dtd">
<svg version="1.1" xmlns="http://www.w3.org/2000/svg" xmlns:xlink="http://www.w3.org/1999/xlink" preserveAspectRatio="xMidYMid meet" viewBox="0 0 640 640" width="640" height="640"><defs><path d="M211.07 124.94L278.93 124.94L278.93 199.94L211.07 199.94L211.07 124.94Z" id="b18hE8R66Q"></path><path d="M211.07 205.94L278.93 205.94L278.93 280.94L211.07 280.94L211.07 205.94Z" id="abPNrBmGb"></path><path d="M211.07 286.94L278.93 286.94L278.93 361.94L211.07 361.94L211.07 286.94Z" id="bpwxopwpB"></path><path d="M284.76 124.94L352.62 124.94L352.62 199.94L284.76 199.94L284.76 124.94Z" id="b15nlItrjn"></path><path d="M358.66 124.94L426.52 124.94L426.52 199.94L358.66 199.94L358.66 124.94Z" id="dCVRl84EL"></path><path d="M432.07 124.94L499.93 124.94L499.93 199.94L432.07 199.94L432.07 124.94Z" id="br0YpzTwy"></path><path d="M284.76 205.94L352.62 205.94L352.62 280.94L284.76 280.94L284.76 205.94Z" id="iqonnvMwJ"></path><path d="M358.66 205.94L426.52 205.94L426.52 280.94L358.66 280.94L358.66 205.94Z" id="dzPu9BdMb"></path><path d="M432.07 205.94L499.93 205.94L499.93 280.94L432.07 280.94L432.07 205.94Z" id="b5f1XL2NhW"></path><path d="M284.76 286.94L352.62 286.94L352.62 361.94L284.76 361.94L284.76 286.94Z" id="aadgZwdv82"></path><path d="M358.66 286.94L426.52 286.94L426.52 361.94L358.66 361.94L358.66 286.94Z" id="b2LrjEVSBQ"></path><path d="M506.07 446.94L573.93 446.94L573.93 521.94L506.07 521.94L506.07 446.94Z" id="b21lVtJuQ"></path><path d="M211.07 366.94L278.93 366.94L278.93 441.94L211.07 441.94L211.07 366.94Z" id="c1TtOQjq"></path><path d="M284.76 366.94L352.62 366.94L352.62 441.94L284.76 441.94L284.76 366.94Z" id="c2PV28F8nY"></path><path d="M432.07 446.94L499.93 446.94L499.93 521.94L432.07 521.94L432.07 446.94Z" id="aetY8S5f5"></path><path d="M506.07 205.94L573.93 205.94L573.93 280.94L506.07 280.94L506.07 205.94Z" id="d1xzg4bwHu"></path><path d="M506.07 286.94L573.93 286.94L573.93 361.94L506.07 361.94L506.07 286.94Z" id="b1UeSum5wE"></path><path d="M506.07 366.94L573.93 366.94L573.93 441.94L506.07 441.94L506.07 366.94Z" id="c10h9qHI2F"></path><path d="M432.07 286.94L499.93 286.94L499.93 361.94L432.07 361.94L432.07 286.94Z" id="e60DmqwBd"></path><path d="M432.07 366.94L499.93 366.94L499.93 441.94L432.07 441.94L432.07 366.94Z" id="f76akC0GiK"></path><path d="M358.66 366.94L426.52 366.94L426.52 441.94L358.66 441.94L358.66 366.94Z" id="cemO5R6VZ"></path><path d="M506.07 124.94L573.93 124.94L573.93 199.94L506.07 199.94L506.07 124.94Z" id="e24osloc8W"></path><path d="M211.07 446.94L278.93 446.94L278.93 521.94L211.07 521.94L211.07 446.94Z" id="cavGVlK7y"></path><path d="M284.76 446.94L352.62 446.94L352.62 521.94L284.76 521.94L284.76 446.94Z" id="bvm0ia6YK"></path><path d="M358.66 446.94L426.52 446.94L426.52 521.94L358.66 521.94L358.66 446.94Z" id="a7hTwnNTU"></path></defs><g><g><g><use xlink:href="#b18hE8R66Q" opacity="1" fill="#f8d901" fill-opacity="1"></use></g><g><use xlink:href="#abPNrBmGb" opacity="1" fill="#f8d901" fill-opacity="1"></use></g><g><use xlink:href="#bpwxopwpB" opacity="1" fill="#f8d901" fill-opacity="1"></use></g><g><use xlink:href="#b15nlItrjn" opacity="1" fill="#f8d901" fill-opacity="1"></use></g><g><use xlink:href="#dCVRl84EL" opacity="1" fill="#f8d901" fill-opacity="1"></use></g><g><use xlink:href="#br0YpzTwy" opacity="1" fill="#f8d901" fill-opacity="1"></use></g><g><use xlink:href="#iqonnvMwJ" opacity="1" fill="#f8d901" fill-opacity="1"></use></g><g><use xlink:href="#dzPu9BdMb" opacity="1" fill="#f8d901" fill-opacity="1"></use></g><g><use xlink:href="#b5f1XL2NhW" opacity="1" fill="#f8d901" fill-opacity="1"></use></g><g><use xlink:href="#aadgZwdv82" opacity="1" fill="#f8d901" fill-opacity="1"></use></g><g><use xlink:href="#b2LrjEVSBQ" opacity="1" fill="#f8d901" fill-opacity="1"></use></g><g><use xlink:href="#b21lVtJuQ" opacity="1" fill="#f8d901" fill-opacity="1"></use></g><g><use xlink:href="#c1TtOQjq" opacity="1" fill="#f8d901" fill-opacity="1"></use></g><g><use xlink:href="#c2PV28F8nY" opacity="1" fill="#f8d901" fill-opacity="1"></use></g><g><use xlink:href="#aetY8S5f5" opacity="1" fill="#f8d901" fill-opacity="1"></use></g><g><use xlink:href="#d1xzg4bwHu" opacity="1" fill="#f8d901" fill-opacity="1"></use></g><g><use xlink:href="#b1UeSum5wE" opacity="1" fill="#f8d901" fill-opacity="1"></use></g><g><use xlink:href="#c10h9qHI2F" opacity="1" fill="#f8d901" fill-opacity="1"></use></g><g><use xlink:href="#e60DmqwBd" opacity="1" fill="#f8d901" fill-opacity="1"></use></g><g><use xlink:href="#f76akC0GiK" opacity="1" fill="#f8d901" fill-opacity="1"></use></g><g><use xlink:href="#cemO5R6VZ" opacity="1" fill="#f8d901" fill-opacity="1"></use></g><g><use xlink:href="#e24osloc8W" opacity="1" fill="#f8d901" fill-opacity="1"></use></g><g><use xlink:href="#cavGVlK7y" opacity="1" fill="#f8d901" fill-opacity="1"></use></g><g><use xlink:href="#bvm0ia6YK" opacity="1" fill="#f8d901" fill-opacity="1"></use></g><g><use xlink:href="#a7hTwnNTU" opacity="1" fill="#f8d901" fill-opacity="1"></use></g></g></g></svg>